<svg preserveAspectRatio="none" width="100%" height="100%" overflow="visible" style="display: block;" viewBox="0 0 40.623 34.3734" fill="none" xmlns="http://www.w3.org/2000/svg">
<g id="Group">
<path id="Vector" opacity="0.2" d="M32.8109 7.81212V26.5612H15.6242C16.8603 26.5612 18.0686 26.1947 19.0964 25.508C20.1242 24.8212 20.9252 23.8452 21.3982 22.7032C21.8712 21.5612 21.995 20.3046 21.7539 19.0923C21.5127 17.8799 20.9175 16.7664 20.0435 15.8923C19.1694 15.0183 18.0558 14.4231 16.8435 14.1819C15.6312 13.9408 14.3746 14.0645 13.2326 14.5376C12.0906 15.0106 11.1145 15.8116 10.4278 16.8394C9.74109 17.8671 9.37455 19.0754 9.37455 20.3115H7.81212V7.81212H32.8109Z" fill="var(--fill-0, #F4BD0B)"/>
<path id="Vector_2" d="M37.4982 0H3.12485C2.29609 0 1.50127 0.329224 0.915247 0.915247C0.329224 1.50127 0 2.29609 0 3.12485V31.2485C0 32.0773 0.329224 32.8721 0.915247 33.4581C1.50127 34.0441 2.29609 34.3733 3.12485 34.3733H5.73996C6.03566 34.3734 6.32532 34.2896 6.57527 34.1316C6.82523 33.9736 7.02522 33.748 7.152 33.4808C7.91177 31.8767 9.1113 30.5213 10.6111 29.5722C12.1109 28.623 13.8493 28.1191 15.6242 28.1191C17.3992 28.1191 19.1376 28.623 20.6374 29.5722C22.1372 30.5213 23.3367 31.8767 24.0965 33.4808C24.2233 33.748 24.4233 33.9736 24.6732 34.1316C24.9232 34.2896 25.2128 34.3734 25.5085 34.3733H37.4982C38.327 34.3733 39.1218 34.0441 39.7078 33.4581C40.2938 32.8721 40.623 32.0773 40.623 31.2485V3.12485C40.623 2.29609 40.2938 1.50127 39.7078 0.915247C39.1218 0.329224 38.327 0 37.4982 0ZM10.937 20.3115C10.937 19.3845 11.2119 18.4782 11.7269 17.7074C12.242 16.9366 12.974 16.3358 13.8305 15.981C14.687 15.6263 15.6294 15.5335 16.5387 15.7143C17.4479 15.8952 18.2831 16.3416 18.9387 16.9971C19.5942 17.6526 20.0406 18.4878 20.2215 19.3971C20.4023 20.3063 20.3095 21.2488 19.9547 22.1053C19.6 22.9618 18.9992 23.6938 18.2284 24.2089C17.4575 24.7239 16.5513 24.9988 15.6242 24.9988C14.3811 24.9988 13.1889 24.505 12.3098 23.6259C11.4308 22.7469 10.937 21.5547 10.937 20.3115ZM37.4982 31.2485H26.4499C25.145 29.0054 23.1783 27.2208 20.8193 26.1394C22.002 25.0862 22.8368 23.6985 23.2129 22.1602C23.589 20.6219 23.4887 19.0056 22.9252 17.5255C22.3618 16.0455 21.3619 14.7717 20.058 13.8729C18.7541 12.9741 17.2079 12.4928 15.6242 12.4928C14.0406 12.4928 12.4944 12.9741 11.1905 13.8729C9.88662 14.7717 8.88669 16.0455 8.32327 17.5255C7.75984 19.0056 7.65953 20.6219 8.03562 22.1602C8.41172 23.6985 9.24646 25.0862 10.4292 26.1394C8.0702 27.2208 6.10345 29.0054 4.7986 31.2485H3.12485V3.12485H37.4982V31.2485ZM6.2497 10.937V7.81212C6.2497 7.39774 6.41431 7.00034 6.70732 6.70732C7.00034 6.41431 7.39774 6.2497 7.81212 6.2497H32.8109C33.2253 6.2497 33.6227 6.41431 33.9157 6.70732C34.2087 7.00034 34.3733 7.39774 34.3733 7.81212V26.5612C34.3733 26.9756 34.2087 27.373 33.9157 27.666C33.6227 27.959 33.2253 28.1236 32.8109 28.1236H29.6861C29.2717 28.1236 28.8743 27.959 28.5813 27.666C28.2883 27.373 28.1236 26.9756 28.1236 26.5612C28.1236 26.1468 28.2883 25.7494 28.5813 25.4564C28.8743 25.1634 29.2717 24.9988 29.6861 24.9988H31.2485V9.37455H9.37455V10.937C9.37455 11.3514 9.20994 11.7488 8.91693 12.0418C8.62391 12.3348 8.22651 12.4994 7.81212 12.4994C7.39774 12.4994 7.00034 12.3348 6.70732 12.0418C6.41431 11.7488 6.2497 11.3514 6.2497 10.937Z" fill="var(--fill-0, white)"/>
</g>
</svg>
