<svg preserveAspectRatio="none" width="100%" height="100%" overflow="visible" style="display: block;" viewBox="0 0 30.8299 30.5466" fill="none" xmlns="http://www.w3.org/2000/svg">
<g id="Group">
<g id="Vector">
</g>
<path id="Vector_2" d="M29.29 4.625C29.6829 4.62544 30.0608 4.7759 30.3466 5.04564C30.6323 5.31539 30.8042 5.68405 30.8273 6.07632C30.8503 6.46858 30.7227 6.85484 30.4705 7.15616C30.2183 7.45748 29.8605 7.65113 29.4703 7.69754L29.29 7.70833V23.125C29.6829 23.1254 30.0608 23.2759 30.3466 23.5456C30.6323 23.8154 30.8042 24.1841 30.8273 24.5763C30.8503 24.9686 30.7227 25.3548 30.4705 25.6562C30.2183 25.9575 29.8605 26.1511 29.4703 26.1975L29.29 26.2083H1.53996C1.14702 26.2079 0.769076 26.0574 0.483349 25.7877C0.197623 25.5179 0.0256798 25.1493 0.00265172 24.757C-0.0203763 24.3648 0.107249 23.9785 0.35945 23.6772C0.611652 23.3759 0.969394 23.1822 1.35958 23.1358L1.53996 23.125V7.70833C1.14702 7.7079 0.769076 7.55744 0.483349 7.28769C0.197623 7.01795 0.0256798 6.64928 0.00265172 6.25702C-0.0203763 5.86475 0.107249 5.4785 0.35945 5.17718C0.611652 4.87585 0.969394 4.6822 1.35958 4.63579L1.53996 4.625H29.29ZM26.2066 7.70833H4.62329V23.125H7.70663V12.3333C7.70663 11.9245 7.86905 11.5323 8.15817 11.2432C8.44729 10.9541 8.83942 10.7917 9.24829 10.7917C9.65717 10.7917 10.0493 10.9541 10.3384 11.2432C10.6275 11.5323 10.79 11.9245 10.79 12.3333V23.125H13.8733V12.3333C13.8733 11.9245 14.0357 11.5323 14.3248 11.2432C14.614 10.9541 15.0061 10.7917 15.415 10.7917C15.8238 10.7917 16.216 10.9541 16.5051 11.2432C16.7942 11.5323 16.9566 11.9245 16.9566 12.3333V23.125H20.04V12.3333C20.04 11.9245 20.2024 11.5323 20.4915 11.2432C20.7806 10.9541 21.1727 10.7917 21.5816 10.7917C21.9905 10.7917 22.3826 10.9541 22.6717 11.2432C22.9609 11.5323 23.1233 11.9245 23.1233 12.3333V23.125H26.2066V7.70833ZM24.665 0C25.0738 0 25.466 0.162425 25.7551 0.451544C26.0442 0.740663 26.2066 1.13279 26.2066 1.54167C26.2066 1.95054 26.0442 2.34267 25.7551 2.63179C25.466 2.92091 25.0738 3.08333 24.665 3.08333H6.16496C5.75608 3.08333 5.36395 2.92091 5.07484 2.63179C4.78572 2.34267 4.62329 1.95054 4.62329 1.54167C4.62329 1.13279 4.78572 0.740663 5.07484 0.451544C5.36395 0.162425 5.75608 0 6.16496 0H24.665Z" fill="var(--fill-0, white)"/>
</g>
</svg>
