<svg preserveAspectRatio="none" width="100%" height="100%" overflow="visible" style="display: block;" viewBox="0 0 31.8213 31.8213" fill="none" xmlns="http://www.w3.org/2000/svg">
<g id="Group">
<path id="Vector" d="M11.1375 19.0928C11.5594 19.0928 11.9641 18.9251 12.2625 18.6268C12.5609 18.3284 12.7285 17.9237 12.7285 17.5017C12.7285 17.0797 12.5609 16.675 12.2625 16.3767C11.9641 16.0783 11.5594 15.9106 11.1375 15.9106C10.7155 15.9106 10.3108 16.0783 10.0124 16.3767C9.71402 16.675 9.54639 17.0797 9.54639 17.5017C9.54639 17.9237 9.71402 18.3284 10.0124 18.6268C10.3108 18.9251 10.7155 19.0928 11.1375 19.0928ZM22.2749 17.5017C22.2749 17.9237 22.1073 18.3284 21.8089 18.6268C21.5105 18.9251 21.1058 19.0928 20.6838 19.0928C20.2619 19.0928 19.8572 18.9251 19.5588 18.6268C19.2604 18.3284 19.0928 17.9237 19.0928 17.5017C19.0928 17.0797 19.2604 16.675 19.5588 16.3767C19.8572 16.0783 20.2619 15.9106 20.6838 15.9106C21.1058 15.9106 21.5105 16.0783 21.8089 16.3767C22.1073 16.675 22.2749 17.0797 22.2749 17.5017Z" fill="var(--fill-0, white)"/>
<path id="Vector_2" fill-rule="evenodd" clip-rule="evenodd" d="M15.9106 31.8213C24.6981 31.8213 31.8213 24.6981 31.8213 15.9106C31.8213 7.1232 24.6981 0 15.9106 0C7.1232 0 0 7.1232 0 15.9106C0 24.6981 7.1232 31.8213 15.9106 31.8213ZM15.9106 28.6392C17.9095 28.6398 19.8804 28.1696 21.6637 27.2668C23.4471 26.364 24.9927 25.0539 26.1755 23.4425C27.3583 21.8312 28.1449 19.9639 28.4718 17.992C28.7986 16.0201 28.6565 13.9989 28.0568 12.0921C26.7283 12.4517 25.3313 12.6426 23.8898 12.6426C21.0801 12.643 18.3203 11.8993 15.8912 10.4872C13.4621 9.07502 11.4503 7.0448 10.0603 4.60295C7.52547 5.91297 5.50432 8.03669 4.32128 10.6332C3.13825 13.2297 2.86195 16.1485 3.53675 18.9208C4.21154 21.6932 5.79828 24.1585 8.04226 25.9209C10.2862 27.6833 13.0573 28.6406 15.9106 28.6392Z" fill="var(--fill-0, white)"/>
</g>
</svg>
